Enum "cardinal_direction" {
    "N"
    "NE"
    "E"
    "SE"
    "S"
    "SW"
    "W"
    "NW"
    "None"
}

Enum "form_status_enum" {
    "Draft"
    "Submitted"
    "Deleted"
    "Flagged"
}

Enum "observation_type_enum" {
    "Positive"
    "Negative"
}

Enum "plant_disposal_format_enum" {
    "Number of plants"
    "Weight (Kg)"
    "Volume (Cubic meters)"
}

Enum "platform_source_enum" {
    "ios"
    "android"
    "batch"
    "unknown"
}

Enum "treatment_pass" {
    "First"
    "Second"
    "Third"
    "Unknown"
}

Enum "water_level_management_enum" {
    "Dam"
    "None"
    "Other"
    "Station"
    "Weir"
}

Enum "yes_no_enum" {
    "yes"
    "no"
}

Enum "yes_no_unknown_enum" {
    "yes"
    "no"
    "unknown"
}

Table "codes"."efficacy_management_rating" {
  "code" varchar(8) [pk, not null, ref: < "activity"."ter_treatment_monitoring_info"."management_efficacy_rating", ref: < "activity"."aq_treatment_monitoring_information"."management_efficacy_rating"]
  "full" varchar(16) [not null, note: 'Full Title of Code']
  "code_sort_order" integer
  "valid_from" timestamptz [not null, default: `now()`]
  "valid_to" timestamptz
  "created_at" timestamptz [not null, default: `now()`]
}

Table "codes"."ter_plant_code" {
  "code" varchar(8) [pk, not null, ref: < "activity"."bio_treatment_release_information"."plant_collected_from", ref: < "activity"."ter_plant_mech_treatment"."invasive_plant", ref: < "activity"."bio_treatment_release_information"."invasive_plant", ref: < "activity"."ter_plant_observation_detail"."invasive_plant", ref: < "activity"."biocontrol_collection_information"."invasive_plant", ref: < "activity"."biocontrol_dispersal_monitoring_information"."invasive_plant", ref: < "activity"."ter_treatment_monitoring_info"."invasive_plant", ref: < "activity"."ter_plant_observation_type"."plant_code"]
  "full" varchar(128) [not null, note: 'Full Title of Code']
  "code_sort_order" integer
  "valid_from" timestamptz [not null, default: `now()`]
  "valid_to" timestamptz
  "created_at" timestamptz [not null, default: `now()`]
  Note: 'Terrestrial Plant Codes'
}

Table "codes"."aspect" {
  "code" varchar(8) [pk, not null, ref: < "activity"."ter_plant_observation_info"."aspect"]
  "full" varchar(32) [not null, note: 'Full Title of Code']
  "code_sort_order" integer
  "valid_from" timestamptz [not null, default: `now()`]
  "valid_to" timestamptz
  "created_at" timestamptz [not null, default: `now()`]
}

Table "codes"."jurisdiction" {
  "code" varchar(8) [pk, not null, ref: < "activity"."jurisdictions"."jurisdiction"]
  "full" varchar(64) [note: 'Full Title of Code']
  "code_sort_order" integer
  "valid_from" timestamptz [not null, default: `now()`]
  "valid_to" timestamptz
  "created_at" timestamptz [not null, default: `now()`]
}

Table "codes"."soil_texture" {
  "code" varchar(8) [pk, not null, ref: < "activity"."ter_plant_observation_info"."soil_texture"]
  "full" varchar(64) [not null, note: 'Full Title of Code']
  "code_sort_order" integer
  "valid_from" timestamptz [not null, default: `now()`]
  "valid_to" timestamptz
  "created_at" timestamptz [not null, default: `now()`]
}

Table "codes"."biocontrol_presence" {
  "code" varchar(8) [pk, not null, ref: < "activity"."biocontrol_dispersal_monitoring_information"."sign_of_biocontrol_presence"]
  "full" varchar(32) [not null, note: 'Full Title of Code']
  "code_sort_order" integer
  "valid_from" timestamptz [not null, default: `now()`]
  "valid_to" timestamptz
  "created_at" timestamptz [not null, default: `now()`]
}

Table "codes"."mesoslope_position" {
  "code" varchar(8) [pk, not null, ref: < "activity"."microsite_condition"."mesoslope_position"]
  "full" varchar(32) [not null, note: 'Full Title of Code']
  "code_sort_order" integer
  "valid_from" timestamptz [not null, default: `now()`]
  "valid_to" timestamptz
  "created_at" timestamptz [not null, default: `now()`]
}

Table "codes"."waterbody_flow_seasonal" {
  "code" varchar(8) [pk, not null, ref: < "activity"."waterbody_inflow_seasonal"."inflow_code"]
  "full" varchar(16) [note: 'Full Title of Code']
  "code_sort_order" integer
  "valid_from" timestamptz [not null, default: `now()`]
  "valid_to" timestamptz
  "created_at" timestamptz [not null, default: `now()`]
}

Table "codes"."disposal_method" {
  "code" varchar(8) [pk, not null, ref: < "activity"."ter_plant_mech_treatment"."disposal_method"]
  "full" varchar(32) [not null, note: 'Full Title of Code']
  "code_sort_order" integer
  "valid_from" timestamptz [not null, default: `now()`]
  "valid_to" timestamptz
  "created_at" timestamptz [not null, default: `now()`]
}

Table "codes"."invasive_plants_on_site" {
  "code" varchar(8) [pk, not null, ref: < "activity"."aq_treatment_monitoring_information"."invasive_plants_on_site", ref: < "activity"."ter_treatment_monitoring_info"."invasive_plants_on_site"]
  "full" varchar(32) [not null, note: 'Full Title of Code']
  "code_sort_order" integer
  "valid_from" timestamptz [not null, default: `now()`]
  "valid_to" timestamptz
  "created_at" timestamptz [not null, default: `now()`]
}

Table "codes"."adjacent_land_use" {
  "code" varchar(8) [pk, not null, ref: < "activity"."waterbody_adjacent_land_use_code"."adjacent_land_use_code"]
  "full" varchar(64) [note: 'Full Title of Code']
  "code_sort_order" integer
  "valid_from" timestamptz [not null, default: `now()`]
  "valid_to" timestamptz
  "created_at" timestamptz [not null, default: `now()`]
}

Table "codes"."bio_agent_life_stage" {
  "code" varchar(500) [pk, not null, ref: < "activity"."biological_agent_count"."stage"]
  "full" varchar(500) [note: 'Full Title of Code']
  "code_sort_order" integer
  "valid_from" timestamptz [not null, default: `now()`]
  "valid_to" timestamptz
  "created_at" timestamptz [not null, default: `now()`]
}

Table "codes"."substrate" {
  "code" varchar(8) [pk, not null, ref: < "activity"."waterbody_substrate_level"."substrate_code"]
  "full" varchar(32) [note: 'Full Title of Code']
  "code_sort_order" integer
  "valid_from" timestamptz [not null, default: `now()`]
  "valid_to" timestamptz
  "created_at" timestamptz [not null, default: `now()`]
}

Table "codes"."funding_agency" {
  "code" varchar(16) [pk, not null, ref: < "activity"."funding_agency"."agency"]
  "full" varchar(64) [note: 'Full Title of Code']
  "code_sort_order" integer
  "valid_from" timestamptz [not null, default: `now()`]
  "valid_to" timestamptz
  "created_at" timestamptz [not null, default: `now()`]
}

Table "codes"."aq_plant_code" {
  "code" varchar(8) [pk, not null, ref: < "activity"."aq_plant_mech_treatment"."invasive_plant", ref: < "activity"."aq_plant_observation_detail"."invasive_plant", ref: < "activity"."aq_plant_observation_type"."plant_code"]
  "full" varchar(128) [not null, note: 'Full Title of Code']
  "code_sort_order" integer
  "valid_from" timestamptz [not null, default: `now()`]
  "valid_to" timestamptz
  "created_at" timestamptz [not null, default: `now()`]
  Note: 'Aquatic Plant Codes'
}

Table "codes"."site_surface_shape" {
  "code" varchar(8) [pk, not null, ref: < "activity"."microsite_condition"."site_surface_shape"]
  "full" varchar(32) [not null, note: 'Full Title of Code']
  "code_sort_order" integer
  "valid_from" timestamptz [not null, default: `now()`]
  "valid_to" timestamptz
  "created_at" timestamptz [not null, default: `now()`]
}

Table "codes"."shoreline_type" {
  "code" varchar(8) [pk, not null, ref: < "activity"."shoreline_types"."shoreline_type"]
  "full" varchar(64) [not null, note: 'Full Title of Code']
  "code_sort_order" integer
  "valid_from" timestamptz [not null, default: `now()`]
  "valid_to" timestamptz
  "created_at" timestamptz [not null, default: `now()`]
}

Table "codes"."precipitation" {
  "code" varchar(8) [pk, not null, ref: < "activity"."weather_condition"."precipitation"]
  "full" varchar(32) [not null, note: 'Full Title of Code']
  "code_sort_order" integer
  "valid_from" timestamptz [not null, default: `now()`]
  "valid_to" timestamptz
  "created_at" timestamptz [not null, default: `now()`]
}

Table "codes"."plant_life_stage" {
  "code" varchar(8) [pk, not null, ref: < "activity"."ter_plant_observation_detail"."life_stage", ref: < "activity"."aq_plant_observation_detail"."life_stage"]
  "full" varchar(32) [not null, note: 'Full Title of Code']
  "code_sort_order" integer
  "valid_from" timestamptz [not null, default: `now()`]
  "valid_to" timestamptz
  "created_at" timestamptz [not null, default: `now()`]
}

Table "codes"."waterbody_flow" {
  "code" varchar(8) [pk, not null, ref: < "activity"."waterbody_outflow_seasonal"."outflow_code", ref: < "activity"."waterbody_inflow_permanent"."inflow_code", ref: < "activity"."waterbody_outflow_permanent"."outflow_code"]
  "full" varchar(16) [note: 'Full Title of Code']
  "code_sort_order" integer
  "valid_from" timestamptz [not null, default: `now()`]
  "valid_to" timestamptz
  "created_at" timestamptz [not null, default: `now()`]
}

Table "codes"."waterbody_use" {
  "code" varchar(8) [pk, not null, ref: < "activity"."waterbody_use"."waterbody_use_code"]
  "full" varchar(32) [note: 'Full Title of Code']
  "code_sort_order" integer
  "valid_from" timestamptz [not null, default: `now()`]
  "valid_to" timestamptz
  "created_at" timestamptz [not null, default: `now()`]
}

Table "codes"."specific_use" {
  "code" varchar(8) [pk, not null, ref: < "activity"."ter_plant_observation_info"."specific_use"]
  "full" varchar(32) [not null, note: 'Full Title of Code']
  "code_sort_order" integer
  "valid_from" timestamptz [not null, default: `now()`]
  "valid_to" timestamptz
  "created_at" timestamptz [not null, default: `now()`]
}

Table "codes"."plant_mech_treatment_method" {
  "code" varchar(8) [pk, not null, ref: < "activity"."ter_plant_mech_treatment"."mechanical_method"]
  "full" varchar(32) [not null, note: 'Full Title of Code']
  "code_sort_order" integer
  "valid_from" timestamptz [not null, default: `now()`]
  "valid_to" timestamptz
  "created_at" timestamptz [not null, default: `now()`]
}

Table "codes"."bio_agent_collection_method" {
  "code" varchar(500) [pk, not null, ref: < "activity"."biocontrol_collection_information"."collection_method"]
  "full" varchar(500) [note: 'Full Title of Code']
  "code_sort_order" integer
  "valid_from" timestamptz [not null, default: `now()`]
  "valid_to" timestamptz
  "created_at" timestamptz [not null, default: `now()`]
}

Table "codes"."density" {
  "code" varchar(8) [pk, not null, ref: < "activity"."aq_plant_observation_detail"."density", ref: < "activity"."ter_plant_observation_detail"."density"]
  "full" varchar(64) [not null, note: 'Full Title of Code']
  "code_sort_order" integer
  "valid_from" timestamptz [not null, default: `now()`]
  "valid_to" timestamptz
  "created_at" timestamptz [not null, default: `now()`]
}

Table "codes"."slope_percent" {
  "code" varchar(8) [pk, not null, ref: < "activity"."ter_plant_observation_info"."slope_percent"]
  "full" varchar(32) [not null, note: 'Full Title of Code']
  "code_sort_order" integer
  "valid_from" timestamptz [not null, default: `now()`]
  "valid_to" timestamptz
  "created_at" timestamptz [not null, default: `now()`]
}

Table "codes"."biocontrol_agent_code" {
  "code" varchar(500) [pk, not null, ref: < "activity"."biological_agent_count"."agent", ref: < "activity"."biocontrol_dispersal_monitoring_information"."biological_agent", ref: < "activity"."bio_treatment_release_information"."bio_agent", ref: < "activity"."biocontrol_collection_information"."biological_agent"]
  "full" varchar(500) [note: 'Full Title of Code']
  "code_sort_order" integer
  "valid_from" timestamptz [not null, default: `now()`]
  "valid_to" timestamptz
  "created_at" timestamptz [not null, default: `now()`]
}

Table "codes"."employer" {
  "code" varchar(500) [pk, not null, default: 16, ref: < "activity"."employer"."employer"]
  "full" varchar(64) [note: 'Full Title of Code']
  "code_sort_order" integer
  "valid_from" timestamptz [not null, default: `now()`]
  "valid_to" timestamptz
  "created_at" timestamptz [not null, default: `now()`]
}

Table "codes"."cloud_cover" {
  "code" varchar(8) [pk, not null, ref: < "activity"."weather_condition"."cloud_cover"]
  "full" varchar(64) [not null, note: 'Full Title of Code']
  "code_sort_order" integer
  "valid_from" timestamptz [not null, default: `now()`]
  "valid_to" timestamptz
  "created_at" timestamptz [not null, default: `now()`]
}

Table "codes"."distribution" {
  "code" varchar(8) [pk, not null, ref: < "activity"."ter_plant_observation_detail"."distribution", ref: < "activity"."aq_plant_observation_detail"."distribution"]
  "full" varchar(128) [not null, note: 'Full Title of Code']
  "code_sort_order" integer
  "valid_from" timestamptz [not null, default: `now()`]
  "valid_to" timestamptz
  "created_at" timestamptz [not null, default: `now()`]
}

Table "activity"."bio_treatment_release_information" {
  "activity_id" bigint [pk, not null, ref: < "activity"."biological_agent_count"."activity_id"]
  "invasive_plant" varchar(500)
  "bio_agent" varchar(500) [ref: < "activity"."biological_agent_count"."agent"]
  "linear_segment" yes_no_unknown_enum
  "mortality" smallint
  "agent_source" varchar(128)
  "collection_date" date
  "plant_collected_from" varchar(500) [note: 'Plant an agent was gathered from. Plant may not be the targetted invasive species.']
  "plant_collected_from_manual" varchar(128)
}

Table "activity"."waterbody_adjacent_land_use_code" {
  "activity_id" bigint [not null, ref: < "activity"."waterbody_data"."activity_id"]
  "adjacent_land_use_code" varchar(32) [not null]

  Indexes {
    (activity_id, adjacent_land_use_code) [pk, name: "pk_table_32_id"]
  }
}

Table "activity"."microsite_condition" {
  "activity_id" bigint [pk, not null]
  "mesoslope_position" varchar(32)
  "site_surface_shape" varchar(32)
}

Table "activity"."biological_agent_count" {
  "activity_id" bigint [not null]
  "agent" varchar(500) [not null]
  "stage" varchar(32) [not null]
  "quantity" smallint
  "is_estimate" boolean [not null]

  Indexes {
    (activity_id, agent, stage, is_estimate) [pk, name: "pk_table_28_id"]
  }
}

Table "activity"."waterbody_data" {
  "activity_id" bigint [pk, not null]
  "type" varchar(32)
  "name_gazetted" varchar(128)
  "name_local" varchar(128)
  "access" varchar(64)
  "max_depth_m" "double precision"
  "secchi_depth" "double precision"
  "colour" varchar(64)
  "tidal_influence" yes_no_unknown_enum
  "comment" text
}

Table "activity"."aq_treatment_monitoring_information" {
  "activity_id" bigint [pk, not null]
  "invasive_plant" varchar(64)
  "evidence_of_treatment" yes_no_enum [note: 'Yes/No/Unknown']
  "management_efficacy_rating" varchar(128)
  "invasive_plants_on_site" varchar(64)
  "treatment_pass" treatment_pass
  "comment" varchar(256)
}

Table "activity"."participant" {
  "id" uuid [not null, default: `gen_random_id()`]
  "activity_id" bigint [not null, ref: < "activity"."activity_basic"."activity_id"]
  "name" varchar(64) [not null]
  "pac_number" smallint [note: 'Only chemical treatments require Pac numbers.']

  Indexes {
    (id, activity_id) [pk, name: "pk_table_14_id"]
  }
  Note: 'User who was involved with a specific activity. Records may contain multiple persons.'
}

Table "activity"."waterbody_use" {
  "activity_id" bigint [not null, ref: < "activity"."waterbody_data"."activity_id"]
  "waterbody_use_code" varchar(32) [not null]

  Indexes {
    (activity_id, waterbody_use_code) [pk, name: "pk_table_32_id"]
  }
}

Table "activity"."ter_plant_observation_detail" {
  "activity_id" bigint [not null]
  "invasive_plant" varchar(64) [ref: < "activity"."ter_voucher_specimen"."invasive_plant"]
  "density" varchar(64)
  "distribution" varchar(128)
  "life_stage" varchar(32)

  Indexes {
    (activity_id, invasive_plant, density, distribution, life_stage) [pk, name: "pk_table_19_id"]
  }
}

Table "activity"."aq_plant_mech_treatment" {
  "activity_id" bigint [not null]
  "invasive_plant" varchar(500)
  "treated_area_msq" "double [note: 'meters^2'] precision" [note: 'meters^2']
  "mechanical_method" varchar(500)
  "disposal_method" varchar(500)
  "disposed_material_format" varchar(500)
  "disposed_material_amount" "double precision"

  Indexes {
    (activity_id, invasive_plant) [pk, name: "pk_table_64_id"]
  }
}

Table "activity"."employer" {
  "activity_id" bigint [not null]
  "employer" varchar(64) [not null]

  Indexes {
    (activity_id, employer) [pk, name: "pk_employer_activity_id"]
  }
  Note: 'The company or Agency that the user is directly employed by'
}

Table "activity"."waterbody_inflow_permanent" {
  "activity_id" bigint [not null, ref: < "activity"."waterbody_data"."activity_id"]
  "inflow_code" varchar(32) [not null]

  Indexes {
    (activity_id, inflow_code) [pk, name: "pk_table_32_id"]
  }
}

Table "activity"."jurisdictions" {
  "activity_id" bigint [not null, ref: < "activity"."activity_basic"."activity_id"]
  "jurisdiction" varchar(128) [not null]
  "percent_covered" smallint [not null]

  Indexes {
    (activity_id, jurisdiction) [pk, name: "pk_jurisdictions_activity_id"]
  }
}

Table "activity"."platform" {
  "activity_id" bigint [pk, not null]
  "src" platform_source_enum [note: 'batch, ios, android']
  Note: 'The device used to create the initial record'
}

Table "activity"."aq_voucher_specimen" {
  "activity_id" bigint [not null]
  "invasive_plant" varchar(64)
  "voucher_sample_id" bigint
  "date_collected" date
  "date_verified" date
  "herbarium" varchar(128)
  "accession_number" varchar(128)
  "completed_by_person" varchar(128) [default: 128]
  "completed_by_org" varchar(128)
  "utm_zone" smallint
  "utm_easting" integer
  "utm_northing" integer

  Indexes {
    (activity_id, invasive_plant) [pk, name: "pk_table_12_id"]
  }
}

Table "activity"."waterbody_water_level_management" {
  "activity_id" bigint [not null, ref: < "activity"."waterbody_data"."activity_id"]
  "water_level_management_code" water_level_management_enum [not null]

  Indexes {
    (activity_id, water_level_management_code) [pk, name: "pk_table_32_id"]
  }
}

Table "activity"."shoreline_types" {
  "activity_id" bigint [not null, ref: < "activity"."activity_basic"."activity_id"]
  "shoreline_type" varchar(64) [not null]
  "percent_covered" smallint

  Indexes {
    (activity_id, shoreline_type) [pk, name: "pk_table_16_id"]
  }
}

Table "activity"."aq_plant_mech_treatment_auth" {
  "activity_id" bigint [pk, not null]
  "details" text
}

Table "activity"."riso_areas" {
  "activity_id" bigint [not null, ref: < "activity"."activity_basic"."activity_id"]
  "organization_area" varchar(128) [not null]

  Indexes {
    (activity_id, organization_area) [pk, name: "pk_table_8_id"]
  }
  Note: 'Certain areas may have overlaps'
}

Table "activity"."plant_heights" {
  "activity_id" bigint [not null, ref: < "activity"."plant_phenology"."activity_id"]
  "id" bigint [not null, increment]
  "height_cm" smallint

  Indexes {
    (activity_id, id) [pk, name: "pk_table_74_id"]
  }
}

Table "activity"."funding_agency" {
  "activity_id" bigint [not null, ref: < "activity"."activity_basic"."activity_id"]
  "agency" varchar(500) [not null]

  Indexes {
    (activity_id, agency) [pk, name: "pk_table_6_id"]
  }
  Note: 'The organization(s) that are paying for the work being done'
}

Table "activity"."waterbody_outflow_seasonal" {
  "activity_id" bigint [not null, ref: < "activity"."waterbody_data"."activity_id"]
  "outflow_code" varchar(32) [not null]

  Indexes {
    (activity_id, outflow_code) [pk, name: "pk_table_32_id"]
  }
}

Table "activity"."ter_treatment_monitoring_info" {
  "activity_id" bigint [pk, not null]
  "invasive_plant" varchar(64)
  "evidence_of_treatment" yes_no_enum [note: 'Yes/No/Unknown']
  "management_efficacy_rating" varchar(128)
  "invasive_plants_on_site" varchar(64)
  "treatment_pass" treatment_pass
  "comment" varchar(256)
}

Table "activity"."nearest_wells" {
  "activity_id" bigint [not null, ref: < "activity"."activity_basic"."activity_id"]
  "well_tag_number" bigint [not null]
  "distance" "double precision"

  Indexes {
    (activity_id, well_tag_number) [pk, name: "pk_table_21_id"]
  }
}

Table "activity"."activity_geometry" {
  "activity_id" bigint [pk, not null]
  "centroid" point [note: 'central position of a record']
  "geom" polygon [note: 'postgis column']
  "area_m" integer
  "utm_zone" smallint
  "utm_easting" integer
  "utm_northing" integer
  "latitude" "double precision"
  "longitude" "double precision"
  "location_description" varchar(512)
}

Table "activity"."ter_plant_mech_treatment" {
  "activity_id" bigint [not null]
  "invasive_plant" varchar(500)
  "treated_area_msq" "double [note: 'meters^2'] precision" [note: 'meters^2']
  "mechanical_method" varchar(500)
  "disposal_method" varchar(500)
  "disposed_material_format" plant_disposal_format_enum
  "disposted_material_amount" "double precision"

  Indexes {
    (activity_id, invasive_plant) [pk, name: "pk_table_64_id"]
  }
}

Table "activity"."ter_plant_observation_info" {
  "activity_id" bigint [not null]
  "soil_texture" varchar(64)
  "research_observation" yes_no_unknown_enum
  "aspect" varchar(32)
  "specific_use" varchar(32)
  "visible_well_nearby" yes_no_unknown_enum
  "slope_percent" varchar(32)

  Indexes {
    (activity_id, soil_texture, specific_use, slope_percent) [pk, name: "pk_observation_plant_terrestrial_information_activity_id"]
  }
}

Table "activity"."weather_condition" {
  "activity_id" bigint [pk, not null]
  "cloud_cover" varchar(64)
  "precipitation" varchar(64)
  "wind_direction" cardinal_direction
  "wind_speed_kmh" smallint
  "temperature_c" smallint
  "weather_comments" text
}

Table "activity"."biocontrol_collection_information" {
  "activity_id" bigint [not null, ref: < "activity"."biological_agent_count"."activity_id"]
  "invasive_plant" varchar(64)
  "biological_agent" varchar(64) [ref: < "activity"."biological_agent_count"."agent"]
  "historical_iapp_site" smallint
  "plant_count_collection_duration" smallint [note: 'used when collection type is count']
  "timed_collection_duration_minutes" smallint [note: 'used when collection type is timed']
  "collection_method" varchar(32)
  "number_of_sweeps" smallint [note: '''if collection method is \'Sweep (Counted)\'''']
  "start_time_collecting" timestamptz
  "end_time_collecting" timestamptz
  "comment" text

  Indexes {
    (activity_id, invasive_plant, biological_agent) [pk, name: "pk_table_27_id"]
  }
}

Table "activity"."batch" {
  "activity_id" bigint [not null]
  "batch_id" bigint [not null]
  "row_id" bigint [not null]

  Indexes {
    (activity_id, batch_id, row_id) [pk, name: "pk_table_17_id"]
  }
}

Table "activity"."activity_basic" {
  "activity_id" bigint [pk, not null, note: 'rolling ID with Sequence', ref: < "activity"."batch"."activity_id", ref: < "activity"."aq_plant_mech_treatment"."activity_id", ref: < "activity"."aq_plant_mech_treatment_auth"."activity_id", ref: < "activity"."spread_results"."activity_id", ref: < "activity"."regional_details"."activity_id", ref: < "activity"."employer"."activity_id", ref: < "activity"."ter_plant_observation_detail"."activity_id", ref: < "activity"."aq_treatment_monitoring_information"."activity_id", ref: < "activity"."ter_treatment_monitoring_info"."activity_id", ref: < "activity"."weather_condition"."activity_id", ref: < "activity"."ter_plant_mech_treatment"."activity_id", ref: < "activity"."plant_phenology"."activity_id", ref: < "activity"."ter_plant_observation_type"."activity_id", ref: < "activity"."waterbody_data"."activity_id", ref: < "activity"."biocontrol_collection_information"."activity_id", ref: < "activity"."bio_treatment_release_information"."activity_id", ref: < "activity"."linked_record"."activity_id", ref: < "activity"."linked_record"."linked_record_id", ref: < "activity"."biocontrol_dispersal_monitoring_information"."activity_id", ref: < "activity"."chem_treatment"."activity_id", ref: < "activity"."microsite_condition"."activity_id", ref: < "activity"."activity_geometry"."activity_id", ref: < "activity"."ter_plant_observation_info"."activity_id", ref: < "activity"."platform"."activity_id", ref: < "activity"."pre_treatment_observation"."activity_id", ref: < "activity"."suitable_for_biocontrol"."activity_id", ref: < "activity"."aq_plant_observation_type"."activity_id"]
  "short_id" varchar(32) [not null, note: 'YY/SubtypeCode/first 8 digits of UUID']
  "activity_type" varchar(32) [not null]
  "activity_subtype" varchar(128) [not null]
  "activity_date" date [not null]
  "created_by" varchar(64) [not null]
  "form_status" form_status_enum [not null]
  "access_description" text
  "comment" text
  "created_timestamp" "timestamp with time zone" [not null]
  "received_timestamp" "timestamp with time zone" [not null]

  Indexes {
    short_id [name: "index_2"]
    activity_subtype [name: "index_3"]
    activity_date [name: "index_4"]
  }
}

Table "activity"."regional_details" {
  "activity_id" bigint [pk, not null]
  "biogeoclimatic_zone" varchar(64) [unique]
  "invasive_plant_management_areas" varchar(128)
  "ownership" varchar(64)
  "regional_districts" varchar(128)
  "flnro_districts" varchar(128) [note: 'Natural Resource Districts managed by the Ministry of Forests, Lands, Natural Resource Operations, and Rural Development (FLNRO) in British Columbia']
  "moti_districts" varchar(128) [note: 'Ministry of Transport and Infrastructure']
  "elevation" smallint [note: 'meters']
}

Table "activity"."project_code" {
  "activity_id" bigint [not null, ref: < "activity"."activity_basic"."activity_id"]
  "description" varchar(64) [not null]

  Indexes {
    (activity_id, description) [pk, name: "pk_table_4_id"]
  }
  Note: '''optional field that can be added to a record to enable searching and sorting/ replaces IAPP\'s "Paper file ID"'''
}

Table "activity"."pre_treatment_observation" {
  "activity_id" bigint [pk, not null]
  "pre_treatment_observation" yes_no_unknown_enum
}

Table "activity"."agent_found_location" {
  "activity_id" bigint [not null]
  "invasive_plant" varchar(500) [not null]
  "agent" varchar(500) [not null]
  "location_code" varchar(500) [not null]

  Indexes {
    (activity_id, invasive_plant, agent, location_code) [pk, name: "pk_table_40_id"]
  }
}

Table "activity"."linked_record" {
  "activity_id" bigint [not null]
  "linked_record_id" bigint [not null]

  Indexes {
    (activity_id, linked_record_id) [pk, name: "pk_table_22_id"]
  }
}

Table "activity"."waterbody_outflow_permanent" {
  "activity_id" bigint [not null, ref: < "activity"."waterbody_data"."activity_id"]
  "outflow_code" varchar(32) [not null]

  Indexes {
    (activity_id, outflow_code) [pk, name: "pk_table_32_id"]
  }
}

Table "activity"."biocontrol_dispersal_monitoring_information" {
  "activity_id" bigint [not null, ref: < "activity"."biological_agent_count"."activity_id", ref: < "activity"."agent_found_location"."activity_id"]
  "invasive_plant" varchar(64) [ref: < "activity"."agent_found_location"."invasive_plant"]
  "biological_agent" varchar(64) [ref: < "activity"."biological_agent_count"."agent", ref: < "activity"."agent_found_location"."agent"]
  "biocontrol_present" boolean
  "sign_of_biocontrol_presence" varchar(32)
  "plant_count" smallint
  "count_duration_minutes" smallint
  "monitoring_method" varchar(32)
  "number_of_sweeps" smallint [note: 'when monitoring method is "Sweep"']
  "start_time" timestamptz
  "stop_time" timestamptz
  "linear_segment" yes_no_unknown
  "suitable_for_collection" yes_no_unknown

  Indexes {
    (activity_id, invasive_plant, biological_agent) [pk, name: "pk_table_29_id"]
  }
}

Table "activity"."suitable_for_biocontrol" {
  "activity_id" bigint [pk, not null]
  "suitable_for_biocontrol" yes_no_unknown_enum [note: 'yes/no/unknown']
}

Table "activity"."plant_phenology" {
  "activity_id" bigint [pk, not null]
  "winter_dormant_pc" smallint [not null, default: 0]
  "seedlings_pc" smallint [not null, default: 0]
  "rosettes_pc" smallint [not null, default: 0]
  "bolts_pc" smallint [not null, default: 0]
  "flowering_pc" smallint [not null, default: 0]
  "seeds_forming_pc" smallint [not null, default: 0]
  "senescent_pc" smallint [not null, default: 0]
  "comment" text
}

Table "activity"."ter_voucher_specimen" {
  "activity_id" bigint
  "invasive_plant" varchar(64)
  "voucher_sample_id" bigint
  "date_collected" date
  "date_verified" date
  "herbarium" varchar(128)
  "accession_number" varchar(128)
  "completed_by_person" varchar(128) [default: 128]
  "completed_by_org" varchar(128)
  "utm_zone" smallint
  "utm_easting" integer
  "utm_northing" integer

  Indexes {
    (activity_id, invasive_plant) [pk, name: "pk_table_12_id"]
  }
}

Table "activity"."aq_plant_observation_detail" {
  "activity_id" bigint [not null, ref: < "activity"."activity_basic"."activity_id", ref: < "activity"."ter_voucher_specimen"."activity_id", ref: < "activity"."aq_voucher_specimen"."activity_id"]
  "invasive_plant" varchar(64) [ref: < "activity"."aq_voucher_specimen"."invasive_plant"]
  "density" varchar(64)
  "distribution" varchar(128)
  "life_stage" varchar(32)
  "sample_point_id" varchar(64) [note: 'For aquatic presence surveys']

  Indexes {
    (activity_id, invasive_plant, density, distribution, life_stage) [pk, name: "pk_table_19_id"]
  }
}

Table "activity"."waterbody_inflow_seasonal" {
  "activity_id" bigint [not null, ref: < "activity"."waterbody_data"."activity_id"]
  "inflow_code" varchar(32) [not null]

  Indexes {
    (activity_id, inflow_code) [pk, name: "pk_table_32_id"]
  }
}

Table "activity"."ter_plant_observation_type" {
  "activity_id" bigint [pk, not null]
  "observation" observation_type_enum [not null]
  "plant_code" varchar(500)
}

Table "activity"."waterbody_substrate_level" {
  "activity_id" bigint [not null, ref: < "activity"."waterbody_data"."activity_id"]
  "substrate_code" varchar(32) [not null]

  Indexes {
    (activity_id, substrate_code) [pk, name: "pk_table_32_id"]
  }
}

Table "activity"."spread_results" {
  "activity_id" bigint [pk, not null]
  "agent_density_percent" smallint
  "plant_attack_percent" smallint
  "max_spread_distance" smallint
  "max_spread_aspect" smallint
}

Table "activity"."chem_treatment" {
  "activity_id" bigint [pk, not null]
  "service_license_number" varchar(128)
  "pesticide_use_permit" varchar(64)
  "pest_management_plan" varchar(128)
  "manual_pest_management_plan" varchar(128)
  "temperature_c" smallint
  "wind_speed_kmh" smallint
  "application_start_time" timestamptz
  "wind_direction" cardinal_direction
  "humidity" smallint
  "treatment_notice_signs" yes_no_unknown_enum [note: 'yes/no/unknown']
  "precautionary_statement" varchar(64)
  "ntz_reduction_bool" boolean
  "rationale_for_ntz_reduction" varchar(256)
  "additiona_unmapped_well_water_bool" boolean
  "pest_injury_threshold_determination_bool" boolean
}

Table "activity"."aq_plant_observation_type" {
  "activity_id" bigint [pk, not null]
  "observation" observation_type_enum [not null]
  "plant_code" varchar(500)
}
